<svg version="1.1" id="Layer_1" xmlns="http://www.w3.org/2000/svg" xmlns:xlink="http://www.w3.org/1999/xlink" x="0px" y="0px"
	 width="100%" viewBox="0 0 1024 1024" enable-background="new 0 0 1024 1024" xml:space="preserve">
<path fill="#000000" opacity="1.000000" stroke="none" 
	d="
M530.709106,341.343384 
	C540.216125,356.595001 537.273315,355.078918 554.422363,351.093872 
	C560.736145,349.626740 566.867920,347.402222 572.773132,344.638123 
	C575.788452,343.226776 578.965698,342.521881 581.595154,345.181610 
	C584.087402,347.702576 583.239868,350.643402 581.956848,353.547333 
	C577.770325,363.023743 574.873840,372.869781 572.986816,383.080231 
	C572.342651,386.565826 573.452881,388.304962 576.029175,390.053375 
	C584.190308,395.591949 592.758606,400.354767 601.929443,403.996399 
	C605.290588,405.331024 608.814148,406.815613 608.684204,411.006836 
	C608.563416,414.900909 605.146912,416.167999 601.948975,417.478271 
	C592.677490,421.276978 583.881653,425.975220 575.653870,431.740112 
	C573.174622,433.477203 572.356201,435.223602 572.930908,438.410522 
	C574.774048,448.630432 577.802551,458.447815 581.856934,467.968414 
	C583.088989,470.861389 584.092651,473.673615 581.543396,476.301086 
	C578.846863,479.080353 575.805603,478.216370 572.772400,476.874084 
	C563.444031,472.746155 553.722229,469.999817 543.719055,467.985596 
	C540.032166,467.243164 538.186890,468.407806 536.326416,471.188141 
	C531.215393,478.826019 526.729126,486.782959 523.246033,495.295258 
	C522.741760,496.527618 522.228638,497.757477 521.676392,498.968811 
	C520.514404,501.517731 518.863159,503.734131 515.841675,503.758331 
	C512.782837,503.782898 511.153198,501.484650 510.035797,498.960297 
	C507.340149,492.870575 504.950867,486.621826 501.382568,480.970306 
	C490.769653,464.161377 495.715759,466.344452 476.308075,470.645935 
	C470.142334,472.012512 464.200256,474.303223 458.452881,476.994720 
	C455.746918,478.261963 452.966919,478.948334 450.514313,476.699463 
	C447.884521,474.288177 448.378784,471.307831 449.634796,468.393250 
	C453.535461,459.341675 456.360962,449.972961 458.375854,440.322510 
	C459.261200,436.082245 458.501923,433.187378 454.550934,430.696838 
	C446.493774,425.617889 438.303864,420.887970 429.397491,417.462585 
	C426.198761,416.232330 422.951080,414.742096 422.922699,410.754608 
	C422.893829,406.706451 426.234100,405.372375 429.410370,404.112335 
	C438.583069,400.473480 447.142639,395.719421 455.340088,390.222534 
	C458.483276,388.114868 459.226837,385.673096 458.512634,382.173584 
	C456.576447,372.686646 454.013428,363.409668 450.103607,354.527222 
	C448.734985,351.417969 447.401215,348.046906 450.233612,345.205566 
	C453.061890,342.368378 456.402344,343.687927 459.537628,345.048401 
	C468.281555,348.842468 477.384216,351.427948 486.703064,353.383636 
	C490.600037,354.201508 493.244354,353.365875 495.576385,349.888641 
	C501.077667,341.685730 505.748901,333.085724 509.369263,323.912811 
	C510.588043,320.824615 512.074951,317.874573 515.838135,317.910553 
	C519.552795,317.946075 521.155457,320.818726 522.320068,323.940277 
	C524.536987,329.882324 527.249939,335.591858 530.709106,341.343384 
M505.180145,460.350677 
	C508.637421,465.558380 512.094727,470.766113 515.894653,476.490021 
	C520.710083,468.990662 524.995850,461.879547 530.180115,455.385773 
	C532.020264,453.080841 533.904968,452.149414 536.995056,452.488464 
	C545.408630,453.411591 553.607056,455.415649 562.427734,457.418427 
	C560.429688,448.949493 558.727600,441.043457 557.595642,433.019470 
	C557.028931,429.002167 558.334534,426.504639 561.500366,424.180817 
	C567.780701,419.570953 574.317688,415.352783 581.566650,410.936829 
	C576.072205,407.291016 571.290588,403.741119 566.158508,400.803711 
	C558.960144,396.683624 555.273621,391.473999 558.508545,382.947968 
	C559.318176,380.814209 559.286926,378.370422 559.723511,376.084656 
	C561.964844,364.349731 562.053040,364.808655 549.973389,366.895569 
	C529.741272,370.390930 535.069458,372.561127 522.683167,355.709564 
	C520.288269,352.451263 518.961975,348.408325 515.403503,345.398224 
	C511.377472,351.957214 507.336395,358.035797 503.163818,364.028076 
	C500.055756,368.491516 496.653839,369.993530 491.352478,368.744171 
	C484.323517,367.087646 477.153412,366.030060 469.409210,364.597717 
	C470.394348,369.075623 471.397308,372.754547 471.995026,376.498199 
	C475.223938,396.721863 477.682617,391.524445 460.929962,403.905640 
	C457.675812,406.310699 453.652008,407.645447 450.474854,411.123047 
	C457.338776,415.354004 463.676910,419.594482 469.915527,423.983124 
	C474.025970,426.874725 474.810577,430.218140 473.877380,434.709076 
	C472.365204,441.986267 471.050262,449.304443 469.550446,457.135773 
	C476.042969,455.832703 482.263367,454.914093 488.293518,453.289307 
	C495.595490,451.321899 501.290375,452.467804 505.180145,460.350677 
z"/>
<path fill="#000000" opacity="1.000000" stroke="none" 
	d="
M440.476440,357.622009 
	C443.035065,364.884094 445.453491,371.789734 447.839691,378.706482 
	C448.727570,381.280029 448.735138,383.402130 445.803680,384.983917 
	C421.494965,398.100281 396.220276,407.873413 368.026489,407.295959 
	C346.197510,406.848877 322.539764,397.417297 312.453888,369.427887 
	C306.430756,352.713043 302.457886,335.252045 293.835358,319.432098 
	C294.635864,318.732697 295.047913,318.101807 295.603455,317.927032 
	C308.708984,313.803436 320.921417,307.620270 332.762421,300.866516 
	C370.321472,279.443848 398.549011,293.721832 420.179932,321.190063 
	C428.789551,332.123047 435.076416,344.423553 440.476440,357.622009 
M415.131256,340.326996 
	C410.595886,332.698425 405.216461,325.728455 398.701355,319.689636 
	C384.218384,306.265503 367.676453,301.777313 349.039276,309.514801 
	C337.834320,314.166656 327.080048,319.898956 316.078949,325.051086 
	C313.614960,326.205017 313.053101,327.651245 313.982819,330.199951 
	C317.916534,340.983704 321.520233,351.890930 325.604187,362.616119 
	C334.545715,386.098083 352.540039,392.736969 372.647217,392.403870 
	C391.560577,392.090576 409.215607,386.028717 426.352509,378.307556 
	C430.538147,376.421661 431.158356,374.169617 429.546417,370.147705 
	C425.516052,360.091614 421.370087,350.113831 415.131256,340.326996 
z"/>
<path fill="#000000" opacity="1.000000" stroke="none" 
	d="
M343.425415,419.228088 
	C360.898926,412.235474 378.401642,413.224945 395.872437,417.038971 
	C413.228180,420.827850 429.528931,427.556549 445.077820,436.137939 
	C447.516785,437.484009 449.071075,438.853546 448.121735,441.991028 
	C440.171600,468.265900 429.441254,493.029327 409.226196,512.486267 
	C397.167389,524.092896 382.984558,531.256226 365.873108,531.250427 
	C357.031982,531.247437 348.888519,528.215027 340.975952,524.566772 
	C326.321075,517.809814 312.597595,509.050873 297.073425,504.159363 
	C294.770416,503.433746 293.757721,502.120605 295.045013,499.661407 
	C302.512390,485.395752 306.256897,469.761169 311.492157,454.676849 
	C317.112549,438.482819 326.698395,425.916962 343.425415,419.228088 
M409.929047,436.624420 
	C396.466888,432.005249 382.778900,428.871094 368.390106,429.227570 
	C347.615051,429.742249 332.426666,440.205872 325.253052,459.580109 
	C321.439484,469.879578 317.977417,480.309113 314.174377,490.612610 
	C313.024139,493.728912 313.552338,495.457001 316.687347,496.890717 
	C326.376862,501.321991 335.931549,506.046906 345.576111,510.578003 
	C365.122650,519.760986 383.175446,516.706421 398.799896,501.654266 
	C413.938843,487.069855 422.979950,468.825714 430.206757,449.475830 
	C431.246063,446.692993 430.327667,445.006622 427.738159,443.943268 
	C422.042297,441.604370 416.350403,439.255768 409.929047,436.624420 
z"/>
<path fill="#000000" opacity="1.000000" stroke="none" 
	d="
M636.203857,562.773438 
	C634.950439,574.900452 630.159241,585.322388 624.784241,595.515381 
	C618.802551,606.859070 612.822510,618.193054 608.955383,630.493103 
	C608.722229,631.234802 608.103638,631.855286 607.435486,632.884949 
	C599.643982,629.247986 591.949707,625.764221 583.894653,623.152832 
	C574.084839,619.972534 564.192993,616.951660 554.624756,613.138672 
	C531.800110,604.042969 521.380127,585.975830 519.679749,562.345703 
	C517.553467,532.795288 528.030945,506.505005 541.470154,481.049927 
	C542.937988,478.269684 544.785400,477.853455 547.592712,478.695618 
	C572.584229,486.192627 596.066833,496.589539 615.156372,514.946045 
	C628.515686,527.792236 636.628113,543.222778 636.203857,562.773438 
M534.275146,554.521606 
	C534.350525,578.547729 544.165771,593.773132 564.873657,601.513184 
	C575.311829,605.414673 585.926514,608.842529 596.379761,612.705566 
	C599.315735,613.790527 600.547363,612.854004 601.724609,610.310791 
	C606.546692,599.894043 611.662720,589.611755 616.386475,579.151672 
	C624.318298,561.587646 621.686218,545.331177 609.301758,530.799988 
	C594.443542,513.366333 574.528076,503.877472 553.558899,496.154266 
	C551.268433,495.310699 550.176636,496.174805 549.291199,498.112762 
	C541.223755,515.769653 534.757324,533.855896 534.275146,554.521606 
z"/>
<path fill="#000000" opacity="1.000000" stroke="none" 
	d="
M597.233643,390.883514 
	C593.059570,388.718872 589.216797,386.727051 585.382751,384.718811 
	C583.589294,383.779449 582.621521,382.587799 583.305786,380.307098 
	C591.287170,353.706329 601.979065,328.539856 622.539001,308.936584 
	C641.119812,291.220367 664.499512,284.233582 690.858582,297.038177 
	C705.513428,304.157135 719.497864,312.743011 735.171631,317.673187 
	C737.701233,318.468872 737.607117,319.992737 736.585083,321.915802 
	C729.185181,335.838928 725.356873,351.088928 720.502075,365.930176 
	C711.113953,394.629791 689.527588,406.765045 662.342834,407.317322 
	C639.296509,407.785522 618.123840,400.600067 597.233643,390.883514 
M639.487671,389.932922 
	C644.656982,391.367126 649.971558,391.754272 655.288147,392.135712 
	C680.821167,393.967438 699.357300,383.338379 707.114075,360.007294 
	C710.370667,350.212097 713.920349,340.507629 717.615845,330.868896 
	C718.838379,327.680298 718.266541,326.078186 715.186157,324.671814 
	C704.882812,319.967712 694.758423,314.866272 684.408081,310.271576 
	C666.053772,302.123749 649.294495,304.997406 634.420532,318.403961 
	C618.215332,333.010406 609.050171,351.981903 601.538635,371.961487 
	C600.373413,375.060699 601.691895,376.418793 604.333252,377.707031 
	C615.318604,383.064911 626.749329,387.093903 639.487671,389.932922 
z"/>
<path fill="#000000" opacity="1.000000" stroke="none" 
	d="
M422.096191,628.573975 
	C417.807709,615.487244 411.123016,603.927246 405.151855,592.030945 
	C400.662781,583.087402 396.391541,574.027405 395.692169,563.821594 
	C394.433868,545.459595 401.760742,530.390625 414.032654,517.413757 
	C428.544434,502.068420 446.700592,492.380493 466.086670,484.781433 
	C471.966980,482.476440 478.088867,480.794800 484.045074,478.673157 
	C486.869141,477.667236 488.650543,478.189453 490.130920,480.965149 
	C503.203186,505.474915 513.128601,530.879395 512.285461,559.287354 
	C511.657959,580.429688 502.679718,603.855347 475.238220,613.882324 
	C466.959229,616.907532 458.530518,619.523743 450.164093,622.308350 
	C442.576874,624.833679 435.006195,627.430603 427.954712,631.243652 
	C424.826874,632.934998 422.984619,632.548523 422.096191,628.573975 
M435.399750,612.593506 
	C445.130310,609.146301 454.817932,605.571533 464.599854,602.276855 
	C489.294434,593.959290 497.990784,576.404846 497.459900,553.304443 
	C497.013580,533.886230 490.668640,515.750549 482.465485,498.272034 
	C481.475311,496.162262 480.344818,495.191711 477.828217,496.131317 
	C457.518402,503.713928 438.154633,512.941162 423.447906,529.491760 
	C410.729187,543.805237 407.093964,560.155579 414.876099,578.125366 
	C419.637939,589.120911 425.034454,599.841064 430.099396,610.706543 
	C431.077972,612.805786 432.273254,614.062561 435.399750,612.593506 
z"/>
<path fill="#000000" opacity="1.000000" stroke="none" 
	d="
M596.745605,476.123535 
	C591.229309,465.208344 587.192383,454.124542 583.709412,442.806885 
	C582.690735,439.496826 583.461670,437.693146 586.553955,436.051208 
	C608.671448,424.307434 631.677856,415.191620 657.003967,414.211365 
	C682.471191,413.225647 709.164429,422.463104 719.660828,453.433655 
	C725.201355,469.781219 729.331909,486.662140 737.423035,501.485168 
	C736.819519,503.516235 735.591187,503.789581 734.530640,504.140991 
	C722.463257,508.139648 711.226868,513.931641 700.082520,519.943481 
	C696.863770,521.679871 693.488464,523.123596 690.209961,524.751953 
	C661.798950,538.862793 637.438171,527.968201 619.940125,510.115631 
	C610.297607,500.277740 602.907898,488.825562 596.745605,476.123535 
M620.769592,487.725433 
	C623.372437,490.970856 625.848755,494.327911 628.598694,497.443481 
	C645.457458,516.543518 664.917480,520.565002 687.876099,509.743713 
	C696.910278,505.485565 705.862854,501.050568 714.953613,496.918365 
	C717.991455,495.537537 718.808472,493.996063 717.613281,490.782928 
	C713.843018,480.647278 710.410339,470.386566 706.692871,460.230652 
	C699.378357,440.247589 684.289978,429.690094 662.972900,429.254181 
	C641.768066,428.820587 622.396606,435.514618 603.452454,444.097198 
	C600.159851,445.588898 600.783936,447.730316 601.706238,450.232117 
	C606.505310,463.250458 612.521973,475.650024 620.769592,487.725433 
z"/>
<path fill="#000000" opacity="1.000000" stroke="none" 
	d="
M465.530334,336.588684 
	C444.264587,327.959686 424.758514,317.325500 410.131104,299.542297 
	C400.273651,287.558136 394.695221,273.967194 395.655731,258.113708 
	C396.076477,251.169250 398.184448,244.679596 400.959503,238.440903 
	C408.194855,222.174805 417.866455,207.032730 423.372955,189.960312 
	C423.457916,189.696869 423.857117,189.534790 424.489258,189.010712 
	C428.807800,190.903442 433.234375,193.156830 437.873474,194.815994 
	C450.101044,199.189148 462.444397,203.237198 474.699158,207.535858 
	C501.507538,216.939606 511.490143,239.574493 512.238892,262.306915 
	C513.175171,290.734467 503.161469,316.165405 490.103424,340.703979 
	C488.585754,343.555939 486.524811,343.769928 483.853394,342.850281 
	C477.871979,340.791138 471.876251,338.773499 465.530334,336.588684 
M455.675385,315.817169 
	C462.083130,319.024231 468.681030,321.785919 475.305695,324.514954 
	C479.403107,326.202942 481.563141,325.381226 483.423096,321.258209 
	C490.876129,304.736938 496.629150,287.702148 497.450897,269.512970 
	C498.416107,248.147873 491.221161,230.663422 471.384857,222.054062 
	C459.649384,216.960632 447.324493,213.229752 435.290161,208.816589 
	C432.781494,207.896622 431.209351,208.469238 430.073669,210.923508 
	C424.689392,222.558929 418.701569,233.948181 413.942719,245.831207 
	C408.461395,259.518219 410.060394,272.926483 418.337524,285.362854 
	C427.505341,299.137451 440.810394,307.852753 455.675385,315.817169 
z"/>
<path fill="#000000" opacity="1.000000" stroke="none" 
	d="
M628.813416,234.305008 
	C644.956726,266.175140 631.991760,291.850220 611.248657,310.122559 
	C592.754639,326.413757 570.721619,336.025665 547.345947,342.949707 
	C544.365784,343.832458 542.798706,342.904663 541.370178,340.263519 
	C529.119385,317.614594 519.819885,293.966217 519.290527,267.883514 
	C518.772583,242.362762 527.931335,216.852188 560.004578,206.200699 
	C573.264038,201.797226 586.813660,198.204117 599.602661,192.423431 
	C602.135864,191.278427 604.452454,189.473770 608.033325,189.365295 
	C613.224609,204.907715 621.359131,219.234787 628.813416,234.305008 
M543.036621,308.542267 
	C545.049377,313.292755 547.095337,318.029541 549.060974,322.799469 
	C550.056702,325.215668 551.471619,326.049438 554.125488,325.102478 
	C574.433899,317.856262 593.423279,308.368134 608.141541,292.111115 
	C621.663635,277.175323 624.634338,260.229370 616.213501,241.694275 
	C611.530762,231.386978 606.483643,221.245407 601.780701,210.947006 
	C600.535522,208.220291 599.196899,207.714508 596.399292,208.754166 
	C586.100830,212.581299 575.657288,216.018799 565.365540,219.863235 
	C544.855591,227.524719 534.554932,242.579285 534.225525,264.481628 
	C533.998596,279.566620 537.771118,293.797363 543.036621,308.542267 
z"/>
<path fill="#000000" opacity="1.000000" stroke="none" 
	d="
M492.866180,657.241577 
	C482.393921,652.029846 472.286987,646.914185 462.109467,641.943237 
	C458.915649,640.383301 456.149261,638.690796 456.701691,634.569824 
	C457.263763,630.376831 459.885529,628.055908 463.957764,627.482117 
	C474.932526,625.935547 485.489655,623.134277 495.144409,617.494263 
	C501.664612,613.685364 507.666107,609.208008 512.391113,603.261719 
	C514.647095,600.422546 516.238403,599.904907 518.946167,603.016846 
	C530.825500,616.669128 546.058899,624.206238 563.848877,626.826721 
	C565.495667,627.069275 567.152344,627.314209 568.762024,627.724487 
	C572.333862,628.634705 574.628662,630.951050 575.142639,634.592407 
	C575.644592,638.148132 573.267273,640.035034 570.430786,641.471313 
	C553.193787,650.199341 535.938904,658.892761 518.747192,667.709167 
	C516.533752,668.844238 514.790955,668.700806 512.693054,667.569519 
	C506.243103,664.091614 499.706909,660.773682 492.866180,657.241577 
M523.981812,648.437683 
	C530.855774,644.941833 537.729675,641.446045 545.596924,637.445007 
	C537.124878,634.255432 530.124695,630.843933 523.669250,626.399902 
	C515.821472,620.997375 515.872498,621.094849 508.168762,626.236328 
	C504.581024,628.630737 500.782196,630.735046 496.959076,632.742310 
	C493.810364,634.395508 490.484711,635.711670 486.483521,637.517456 
	C494.188965,641.511902 501.316498,644.725037 507.925323,648.782898 
	C513.351746,652.114807 518.184387,652.888123 523.981812,648.437683 
z"/>
<path fill="#000000" opacity="1.000000" stroke="none" 
	d="
M493.805969,203.198456 
	C484.709045,198.337021 475.330353,195.607742 465.499176,194.291428 
	C464.035309,194.095428 462.520447,193.769409 461.196045,193.147919 
	C458.423126,191.846695 456.878265,189.514404 456.692108,186.448761 
	C456.504303,183.356186 458.381348,181.553879 460.925659,180.265030 
	C478.167084,171.531250 495.428741,162.836868 512.626282,154.017456 
	C515.177551,152.709076 517.190430,153.068420 519.616455,154.311234 
	C536.223938,162.818680 552.890015,171.212097 569.562378,179.592087 
	C572.675232,181.156677 575.739868,182.835785 575.091675,186.924988 
	C574.411865,191.214462 571.378235,193.421494 567.238281,194.212997 
	C562.825806,195.056610 558.327881,195.592117 554.014954,196.792725 
	C539.881409,200.727219 527.632690,207.792053 518.162537,219.241714 
	C517.646912,219.865067 516.965942,220.351669 515.825562,221.390579 
	C509.236420,214.518478 502.543243,207.851456 493.805969,203.198456 
M539.515747,180.968704 
	C532.716858,177.486160 525.914612,174.010132 519.121521,170.516327 
	C517.478699,169.671432 515.903259,168.800903 513.969360,169.801239 
	C505.019684,174.430679 496.050171,179.021774 486.116119,184.125839 
	C496.860504,188.165009 505.923218,193.183807 514.131714,199.685501 
	C516.032471,201.191010 517.538391,199.804581 518.978333,198.652771 
	C524.192139,194.482071 529.873474,191.058441 535.865540,188.145660 
	C538.608032,186.812531 541.407837,185.597305 544.766174,184.061234 
	C542.686646,182.824158 541.413940,182.067062 539.515747,180.968704 
z"/>
<path fill="#000000" opacity="1.000000" stroke="none" 
	d="
M383.744049,211.649185 
	C386.629761,210.655334 389.134949,209.752426 391.649567,208.876465 
	C394.555115,207.864319 397.294800,207.976074 399.363373,210.545166 
	C401.552002,213.263367 401.959564,216.332932 400.166534,219.385406 
	C398.908020,221.527985 397.277527,223.449036 395.865570,225.505005 
	C386.454712,239.208450 381.069000,254.173538 382.213867,270.994263 
	C382.536438,275.733398 381.325836,277.545685 376.242004,277.186401 
	C358.300049,275.918274 342.549805,281.918640 328.320465,292.492249 
	C327.252563,293.285767 326.187317,294.099609 325.041992,294.769104 
	C321.860504,296.628815 318.665924,296.691803 315.737946,294.304993 
	C312.960266,292.040619 313.272705,289.036041 314.259674,286.062073 
	C318.241943,274.062592 322.300446,262.088440 326.278992,250.087738 
	C328.111298,244.560959 330.029236,239.048950 331.519409,233.427139 
	C332.520416,229.650848 334.483185,227.680557 338.292847,226.490387 
	C353.380096,221.776932 368.352631,216.696472 383.744049,211.649185 
M342.741730,246.108459 
	C340.235870,254.041901 337.730042,261.975342 334.799316,271.253967 
	C344.819000,267.095978 353.476929,264.057343 362.616364,263.181610 
	C366.652893,262.794800 367.908875,260.937836 368.333740,257.324402 
	C369.172394,250.191956 370.953430,243.267044 373.645111,236.585220 
	C374.243988,235.098541 375.493317,233.384613 374.087555,231.930756 
	C372.589508,230.381393 370.662781,231.352203 368.932495,231.908936 
	C362.749969,233.898163 356.633240,236.132401 350.366364,237.804688 
	C346.180298,238.921707 343.560730,240.993835 342.741730,246.108459 
z"/>
<path fill="#000000" opacity="1.000000" stroke="none" 
	d="
M632.675903,600.005859 
	C645.409119,583.708740 651.457764,565.714661 649.343384,544.905212 
	C655.456055,544.153320 661.239685,544.903992 666.974243,544.185852 
	C680.583557,542.481445 692.489502,537.020874 703.353271,528.942078 
	C705.228638,527.547424 707.012390,526.068359 709.439758,525.719238 
	C715.691284,524.820251 719.492249,529.042236 717.552307,535.024475 
	C711.605042,553.364380 705.484924,571.648315 699.580505,590.001770 
	C698.690674,592.767883 697.002869,593.935669 694.445557,594.766113 
	C676.898315,600.464783 659.381714,606.257996 641.861938,612.041077 
	C638.492798,613.153198 634.995361,614.595703 632.308411,611.004211 
	C629.710327,607.531555 630.153320,603.849304 632.675903,600.005859 
M672.193665,557.939880 
	C664.381042,558.961792 664.384338,558.962341 663.048157,566.969055 
	C662.939026,567.622925 662.691528,568.254944 662.597412,568.909912 
	C661.491516,576.605347 658.257019,583.690552 655.465149,591.852417 
	C663.617737,589.265869 670.755493,586.528198 678.130005,584.802673 
	C684.724121,583.259888 688.299622,579.858521 689.741882,573.212646 
	C691.370728,565.706970 694.836182,558.662537 696.499573,550.358032 
	C688.353394,553.625488 680.921875,556.489075 672.193665,557.939880 
z"/>
<path fill="#000000" opacity="1.000000" stroke="none" 
	d="
M384.749878,573.262573 
	C387.729462,582.790405 392.139832,591.123413 397.937622,598.739685 
	C399.347229,600.591370 400.803406,602.437134 401.149445,604.852234 
	C401.948303,610.428040 397.643219,614.530029 392.334656,612.822266 
	C373.502014,606.764099 354.741882,600.480774 335.934814,594.342407 
	C333.753662,593.630554 332.786804,592.114502 332.136566,590.121033 
	C326.259766,572.103943 320.360840,554.093994 314.471558,536.080994 
	C313.408112,532.828308 312.393524,529.425476 315.900940,527.068481 
	C319.274902,524.801086 322.945496,524.984680 326.153381,527.466064 
	C341.730164,539.515259 359.049194,546.070435 378.990753,544.505737 
	C382.357727,544.241455 382.284943,546.390808 382.193481,548.694519 
	C381.868927,556.869995 382.116638,564.991028 384.749878,573.262573 
M375.762238,590.946228 
	C372.301819,581.445435 368.984375,571.904297 367.828003,561.778809 
	C367.631989,560.062500 366.740967,558.901245 365.066406,558.737183 
	C354.767517,557.727905 345.050079,554.564514 334.501678,550.034485 
	C338.082092,560.965942 341.302704,570.841248 344.567291,580.701904 
	C344.898926,581.703552 345.830383,582.215088 346.811798,582.517944 
	C356.319122,585.451782 365.829315,588.376343 375.762238,590.946228 
z"/>
<path fill="#000000" opacity="1.000000" stroke="none" 
	d="
M757.864563,379.240204 
	C762.662659,388.604156 767.213989,397.676422 771.960327,406.645477 
	C773.416260,409.396545 773.581482,411.721466 772.112793,414.582794 
	C763.529114,431.306030 755.098389,448.107941 746.655884,464.903351 
	C745.154358,467.890472 743.365479,470.613861 739.574524,470.028931 
	C735.783813,469.444031 733.300964,467.023010 732.612000,463.146423 
	C731.098145,454.628571 729.601318,446.137848 725.959167,438.163025 
	C721.747070,428.940613 716.177063,420.727112 708.375488,414.233215 
	C705.311523,411.682770 705.004150,410.143555 708.216980,407.365814 
	C721.482422,395.896576 728.755798,381.066986 731.675171,363.946320 
	C731.814819,363.127350 731.850830,362.290680 731.991028,361.471832 
	C732.774902,356.894989 733.817871,352.349731 739.445374,351.603882 
	C745.039856,350.862396 746.056274,355.668274 747.889954,359.254517 
	C751.222717,365.772644 754.432007,372.353882 757.864563,379.240204 
M734.680725,423.932617 
	C737.220703,429.118683 739.760742,434.304749 742.588623,440.078705 
	C745.251587,434.938202 747.114380,429.804840 750.239807,425.612854 
	C757.952087,415.268463 757.471069,405.525543 749.966248,395.404541 
	C746.992371,391.393951 745.720520,386.258850 742.179749,381.621826 
	C739.636169,387.876953 737.148499,393.292206 734.209412,398.493652 
	C731.761536,402.825592 726.154358,406.422241 726.530640,410.844238 
	C726.900024,415.185272 731.540588,419.162933 734.680725,423.932617 
z"/>
<path fill="#000000" opacity="1.000000" stroke="none" 
	d="
M645.139954,242.876678 
	C642.105347,235.383255 638.411560,228.711823 633.638611,222.651978 
	C631.862244,220.396652 630.430237,218.032272 630.676697,214.944656 
	C631.074097,209.966843 634.427307,207.244141 639.194885,208.774948 
	C658.035217,214.824387 676.808472,221.082550 695.613525,227.242142 
	C697.719055,227.931793 698.764465,229.370285 699.438721,231.437973 
	C705.469360,249.931625 711.564148,268.404419 717.673157,286.872375 
	C718.588257,289.638611 718.524841,292.226654 716.187500,294.168274 
	C713.896790,296.071167 711.139038,296.892456 708.271790,295.605316 
	C706.474548,294.798553 704.798401,293.648956 703.208923,292.464111 
	C688.995361,281.868622 673.240662,275.975128 655.325867,277.113861 
	C650.915771,277.394196 649.298584,276.121033 649.633179,271.622833 
	C650.359192,261.862671 648.625549,252.406708 645.139954,242.876678 
M666.468140,233.174759 
	C662.888977,232.363022 659.630798,230.178207 655.245056,230.293350 
	C659.616821,240.056839 662.752197,249.634323 663.501953,259.860046 
	C663.622131,261.498596 664.654053,262.556427 666.416077,262.754333 
	C676.683350,263.907410 686.470642,266.864441 697.017273,271.580261 
	C693.557678,260.737640 690.476562,250.989761 687.318726,241.266815 
	C686.735291,239.470459 684.941284,239.047028 683.370483,238.536743 
	C677.999512,236.791977 672.612183,235.097702 666.468140,233.174759 
z"/>
<path fill="#000000" opacity="1.000000" stroke="none" 
	d="
M293.950378,351.955139 
	C297.076233,353.625061 298.886902,355.804932 299.281708,359.090088 
	C301.633026,378.657623 309.408264,395.477478 324.456299,408.600189 
	C325.065796,409.131683 325.516571,409.845123 325.916809,410.324646 
	C325.933838,411.916321 324.979370,412.657990 324.098907,413.400085 
	C309.306091,425.868439 302.211365,442.341400 299.408691,461.009827 
	C299.107544,463.015900 298.882111,464.939178 297.634827,466.618744 
	C293.965271,471.560059 288.527100,471.314606 285.675598,465.898712 
	C282.730865,460.305756 280.078400,454.559753 277.213715,448.923615 
	C271.333466,437.354492 265.456055,425.783051 259.435883,414.286682 
	C258.158875,411.848053 257.968353,409.872742 259.275269,407.327423 
	C267.938904,390.454315 276.472260,373.513977 284.977295,356.560059 
	C286.811829,352.903076 289.144043,350.526581 293.950378,351.955139 
M287.210754,384.985535 
	C283.399780,392.390961 279.573029,399.788300 275.791412,407.208679 
	C275.053162,408.657196 273.848694,410.128967 274.725769,411.878998 
	C279.309784,421.025391 283.954559,430.141296 289.176300,440.448456 
	C292.650726,432.007080 295.842224,425.069031 300.145386,418.733276 
	C305.561279,410.759277 305.523254,410.801361 300.230011,402.684174 
	C298.049835,399.340881 296.001526,395.893585 294.151062,392.358612 
	C292.425354,389.061890 291.041656,385.586121 289.268341,381.659851 
	C288.366638,383.032990 287.920990,383.711700 287.210754,384.985535 
z"/>
<path fill="#000000" opacity="1.000000" stroke="none" 
	d="
M299.813843,735.150391 
	C306.750763,716.743347 321.850159,707.228027 339.013367,710.128235 
	C358.340240,713.394043 371.117493,727.734009 370.927338,747.608765 
	C370.779388,763.070557 364.479279,775.823608 349.802673,782.857117 
	C336.794830,789.090942 319.215851,786.554199 309.285370,776.584045 
	C297.804993,765.057800 295.295471,750.996704 299.813843,735.150391 
M342.348297,716.973022 
	C331.491333,712.863464 321.589661,715.822266 315.079193,725.121460 
	C305.287384,739.107483 307.583069,762.671936 319.889954,774.502625 
	C328.534180,782.812378 341.427124,782.789368 350.029205,774.448853 
	C365.522736,759.426453 361.760895,728.686157 342.348297,716.973022 
z"/>
<path fill="#000000" opacity="1.000000" stroke="none" 
	d="
M820.366699,710.277039 
	C837.028503,712.891846 848.966187,725.195251 851.195557,741.713501 
	C853.557068,759.210632 845.013550,776.861267 830.385559,782.908630 
	C807.313293,792.446960 779.701721,780.339966 778.597839,749.704346 
	C777.874695,729.632874 790.126892,715.040222 803.670227,711.386658 
	C809.035156,709.939392 814.410034,709.175903 820.366699,710.277039 
M827.081543,719.341614 
	C816.023682,711.238953 799.604919,714.623657 793.102417,729.673645 
	C786.859436,744.122925 788.405640,758.169189 797.358215,770.910645 
	C807.115723,784.797791 826.005981,783.729980 834.915161,769.263306 
	C844.199097,754.188110 840.961670,732.105774 827.081543,719.341614 
z"/>
<path fill="#000000" opacity="1.000000" stroke="none" 
	d="
M531.747681,727.425171 
	C540.076599,743.972595 538.467102,762.007080 527.766602,774.023865 
	C517.139587,785.958191 503.740906,788.335205 489.078949,784.252197 
	C474.712494,780.251587 467.209991,769.659607 464.771942,755.457397 
	C461.822388,738.275452 469.325684,721.311707 482.529449,714.128601 
	C499.587952,704.848206 520.549988,710.398193 531.747681,727.425171 
M503.946045,780.551086 
	C511.401794,779.460815 516.791016,775.259155 520.689819,769.073914 
	C529.113220,755.710815 526.877869,734.003113 516.010559,722.466431 
	C505.190826,710.980225 487.766968,713.050110 480.219757,726.965332 
	C472.570557,741.068726 473.639435,755.193542 481.545990,768.803406 
	C486.253052,776.905823 493.493469,781.118103 503.946045,780.551086 
z"/>
<path fill="#000000" opacity="1.000000" stroke="none" 
	d="
M922.183228,723.400269 
	C922.114014,741.517761 922.152283,759.180664 921.913391,776.839783 
	C921.872314,779.880981 923.741821,784.194336 919.636353,785.715881 
	C915.244141,787.343689 913.760986,782.883362 911.780457,780.248169 
	C900.070374,764.667114 888.481262,748.995117 876.832947,733.367554 
	C875.757385,731.924561 874.552246,730.578003 873.355042,729.123169 
	C871.720825,730.551819 872.362122,732.146973 872.358643,733.522278 
	C872.325073,746.851685 872.437500,760.181824 872.344238,773.510498 
	C872.321289,776.790222 872.686401,779.168640 876.810059,778.765747 
	C878.576111,778.593262 879.665527,779.525208 879.696838,781.394287 
	C879.732849,783.539917 878.473267,784.307617 876.509949,784.302612 
	C872.178101,784.291565 867.845947,784.317200 863.514465,784.276855 
	C862.010193,784.262878 860.358276,784.254089 860.053528,782.244019 
	C859.792786,780.524048 861.078491,780.031433 862.388916,779.533020 
	C865.710266,778.269531 866.621643,775.480164 866.630310,772.305298 
	C866.676880,755.310181 866.630981,738.314758 866.721741,721.319885 
	C866.737244,718.410156 865.810791,716.931458 862.731567,717.056030 
	C860.982178,717.126892 859.886230,716.190369 859.921631,714.319214 
	C859.958130,712.388733 861.234070,711.850952 862.911682,711.720093 
	C868.882385,711.254822 873.759277,711.795471 877.878540,717.703857 
	C889.017029,733.680420 901.017944,749.055908 912.688416,764.661194 
	C913.372681,765.576172 914.159485,766.414490 915.722961,768.263367 
	C915.722961,759.926453 915.718628,752.693298 915.724121,745.460205 
	C915.730042,737.629089 915.700684,729.797485 915.780273,721.967041 
	C915.808411,719.204468 915.615723,716.912170 911.937317,717.061584 
	C910.009399,717.140015 908.744446,716.237305 908.910278,714.043152 
	C909.063843,712.012207 910.510925,711.714233 912.098938,711.703430 
	C916.597351,711.672852 921.096130,711.665833 925.594543,711.696960 
	C926.930603,711.706177 928.401794,711.726257 928.564758,713.578491 
	C928.683594,714.929260 927.936035,715.855103 926.678101,716.156372 
	C923.024658,717.031128 922.106079,719.637024 922.183228,723.400269 
z"/>
<path fill="#000000" opacity="1.000000" stroke="none" 
	d="
M222.995361,713.022095 
	C225.417343,710.989197 228.009567,711.648926 230.429611,711.706299 
	C240.066193,711.934753 249.770081,710.628540 259.332550,712.551697 
	C280.758881,716.860779 290.676056,729.877136 289.276917,751.627686 
	C288.132233,769.423279 273.613556,783.083008 254.113586,784.150024 
	C244.977875,784.649841 235.794052,784.296326 226.632233,784.265747 
	C225.219162,784.260986 223.417953,784.608276 222.903152,782.625244 
	C222.416214,780.749512 223.621613,780.004517 225.223190,779.459900 
	C228.648132,778.295410 229.496506,775.301392 229.518112,772.243469 
	C229.639297,755.085938 229.582993,737.927185 229.642136,720.769043 
	C229.650604,718.312195 228.782272,716.960144 226.179306,717.055725 
	C223.689331,717.147156 222.367264,716.120300 222.995361,713.022095 
M274.121735,764.556152 
	C274.746948,763.194885 275.510803,761.879272 275.976562,760.465515 
	C282.650604,740.205383 275.372040,715.859497 246.506683,716.281799 
	C241.977325,716.348022 239.470901,718.396729 239.441269,722.815186 
	C239.323898,740.314087 239.380356,757.814148 239.342636,775.313782 
	C239.337967,777.481201 240.132263,778.590759 242.430252,778.983826 
	C255.550354,781.227722 266.821716,776.331604 274.121735,764.556152 
z"/>
<path fill="#000000" opacity="1.000000" stroke="none" 
	d="
M132.391968,782.433838 
	C123.252106,785.931946 114.282707,787.054138 105.091599,784.803528 
	C87.758057,780.559143 78.768806,766.534180 79.694847,745.385498 
	C80.622368,724.203186 96.907936,708.804626 117.497482,709.757629 
	C123.359894,710.028931 128.955292,711.688416 134.756073,713.961670 
	C136.004745,711.370361 138.031311,709.769958 140.943390,710.919434 
	C143.851471,712.067383 142.841095,714.862427 142.885971,717.031189 
	C142.985809,721.858032 142.907715,726.691772 142.763702,731.518555 
	C142.714767,733.158691 142.513763,735.026489 140.154892,735.045959 
	C138.139008,735.062561 137.879898,733.529480 137.568451,731.997803 
	C135.652969,722.577332 129.766266,716.969299 120.450668,715.498474 
	C110.689087,713.957153 102.834686,717.664062 97.104698,725.740356 
	C88.260834,738.205444 88.509132,757.591125 97.682686,769.859924 
	C106.614983,781.805908 121.134132,781.700195 131.880554,776.392273 
	C133.442230,775.620789 134.618835,774.503784 134.615799,772.559753 
	C134.606232,766.430542 134.612259,760.301331 134.612259,754.586182 
	C132.970627,753.107666 131.612320,753.623657 130.328156,753.738281 
	C128.480881,753.903198 127.420578,753.193420 127.411583,751.271362 
	C127.403526,749.551270 128.169449,748.232849 129.985504,748.213257 
	C136.307434,748.145081 142.631302,748.179871 148.953171,748.267517 
	C149.928192,748.281006 150.895218,748.775696 151.119476,749.978516 
	C151.365250,751.296814 150.941071,752.416687 149.675644,752.807190 
	C144.730225,754.333069 144.605133,758.539978 144.375565,762.497742 
	C144.125122,766.815002 144.172623,771.161194 144.326431,775.486328 
	C144.438507,778.638306 143.739990,780.486877 140.041885,780.598389 
	C137.606949,780.671753 135.201202,781.713074 132.391968,782.433838 
z"/>
<path fill="#000000" opacity="1.000000" stroke="none" 
	d="
M961.746704,741.194397 
	C966.832458,743.765137 971.718079,745.943604 976.315063,748.617920 
	C984.614685,753.446228 988.033264,761.161621 986.266846,770.151184 
	C984.685181,778.200562 978.271729,783.652466 969.096497,785.362427 
	C961.076111,786.857239 953.570801,785.420471 945.850525,782.142700 
	C944.874023,784.481934 943.216614,785.952820 940.563110,784.976990 
	C937.998230,784.033813 938.803894,781.687927 938.679871,779.814331 
	C938.383057,775.331116 938.155945,770.841980 937.994019,766.351807 
	C937.934570,764.703918 937.841003,762.792725 940.087891,762.412292 
	C942.582031,761.989990 943.075378,763.708069 943.441406,765.704285 
	C945.815491,778.650757 959.791077,782.513000 968.043640,779.640808 
	C977.074341,776.497925 979.679321,766.644043 973.117432,759.629639 
	C970.917908,757.278442 968.200500,755.682495 965.357422,754.251892 
	C960.152161,751.632446 954.827759,749.212830 949.799133,746.286987 
	C939.796753,740.466980 936.152466,731.895203 939.269226,722.431641 
	C942.152405,713.677246 951.415344,708.548157 962.297485,709.860352 
	C965.254639,710.216919 968.171204,710.989868 971.071716,711.710938 
	C973.442871,712.300415 975.401062,713.891052 978.015564,711.200439 
	C979.542297,709.629211 982.765686,710.479126 982.852234,713.861633 
	C982.996948,719.519897 982.913574,725.186096 982.812805,730.846924 
	C982.786621,732.322144 982.547241,734.013916 980.503540,734.108337 
	C978.608154,734.195862 977.993225,732.894226 977.705383,731.251587 
	C977.124695,727.936584 975.997437,724.822021 974.046326,722.043457 
	C969.983215,716.257019 962.669800,713.686951 955.923218,715.674500 
	C948.154236,717.963318 945.352051,727.657532 950.696899,733.849304 
	C953.603882,737.216858 957.523376,739.110779 961.746704,741.194397 
z"/>
<path fill="#000000" opacity="1.000000" stroke="none" 
	d="
M426.217743,738.765625 
	C432.484589,741.917664 438.576202,744.646240 444.341095,747.945679 
	C453.809784,753.365173 457.356415,760.940002 455.362732,770.308289 
	C453.549042,778.830811 447.055054,783.833008 436.584778,785.509766 
	C431.664246,786.297729 426.996552,785.698853 422.271973,784.727356 
	C418.990967,784.052734 416.027252,781.541809 412.376801,784.866211 
	C410.747803,786.349792 407.816162,785.166382 407.717865,781.803894 
	C407.562347,776.484009 407.350555,771.165649 407.211731,765.845459 
	C407.171875,764.318054 407.267761,762.706482 409.230652,762.360840 
	C411.391815,761.980408 412.096588,763.304016 412.483948,765.180115 
	C414.371307,774.320679 420.248627,779.139709 429.275696,780.473633 
	C439.120728,781.928406 446.890686,775.204895 445.661560,766.201294 
	C444.959106,761.055847 441.290955,758.051331 437.172302,755.744263 
	C430.791321,752.169922 424.103607,749.138428 417.760620,745.502258 
	C412.206940,742.318665 408.124725,737.749878 407.690430,730.943420 
	C406.809814,717.142334 416.191010,708.547729 430.826935,709.826050 
	C433.948059,710.098633 437.045868,710.906555 440.089600,711.712524 
	C442.489532,712.348083 444.343384,713.814575 447.029205,711.239563 
	C448.828766,709.514099 451.958832,710.533569 451.998352,714.225098 
	C452.055328,719.550781 452.071442,724.877869 452.006195,730.203125 
	C451.986481,731.812561 452.117462,733.817688 449.809692,734.060181 
	C447.251648,734.328979 447.099213,732.293274 446.640717,730.468933 
	C444.030518,720.083374 438.641052,715.265991 429.746216,715.252441 
	C423.770050,715.243347 419.240234,717.907532 417.697357,722.338928 
	C415.909576,727.473511 417.682251,732.694763 422.545074,736.429626 
	C423.596832,737.237427 424.775513,737.880005 426.217743,738.765625 
z"/>
<path fill="#000000" opacity="1.000000" stroke="none" 
	d="
M604.899902,717.113525 
	C602.518311,716.910950 600.706360,716.509583 601.011169,713.923401 
	C601.285278,711.598206 603.159119,711.704895 604.812378,711.695862 
	C610.473389,711.664978 616.134766,711.676392 621.795837,711.709656 
	C622.953857,711.716431 624.288025,711.725586 624.654907,713.154663 
	C625.061096,714.736572 624.149963,715.756226 622.702820,716.108826 
	C620.106323,716.741516 618.426147,718.335876 618.412415,720.934998 
	C618.341309,734.398193 617.029297,747.936707 619.140198,761.299805 
	C621.155273,774.057068 627.613403,779.098145 639.816956,778.758179 
	C650.246033,778.467651 657.135559,771.544006 658.635803,759.749207 
	C660.280762,746.816223 659.414856,733.811890 659.673401,720.839172 
	C659.721497,718.425476 658.900757,717.020142 656.271606,717.049438 
	C654.192993,717.072571 652.605591,716.420593 652.885986,713.887634 
	C653.152588,711.479370 655.068726,711.723816 656.676208,711.702942 
	C661.004639,711.646667 665.334351,711.675964 669.663330,711.704224 
	C670.838684,711.711914 672.132568,711.757019 672.427368,713.243286 
	C672.734985,714.794434 671.973816,715.885193 670.457092,716.199036 
	C666.724548,716.971802 665.851074,719.776184 665.781921,722.928894 
	C665.551880,733.409912 665.500610,743.894714 665.293518,754.376343 
	C665.146179,761.829407 663.348877,768.852722 659.399902,775.249878 
	C655.850403,781.000000 650.572571,784.009399 644.051758,785.366943 
	C638.363037,786.551270 632.749023,786.125061 627.222229,784.920410 
	C616.429443,782.567871 610.149719,774.095642 608.637268,761.173462 
	C607.139832,748.378967 608.043091,735.566711 607.784119,722.764587 
	C607.741089,720.639160 608.832153,717.827759 604.899902,717.113525 
z"/>
<path fill="#000000" opacity="1.000000" stroke="none" 
	d="
M28.510704,784.225098 
	C23.572264,784.291626 19.078493,784.301270 14.584759,784.292419 
	C13.221559,784.289734 11.799224,784.214844 11.341184,782.604553 
	C10.898705,781.049072 11.771952,780.133179 13.132976,779.496033 
	C16.463045,777.937195 17.668022,774.808228 18.827650,771.653015 
	C25.826799,752.608398 32.808800,733.557434 39.869102,714.535461 
	C40.519447,712.783264 40.545280,710.187988 43.072239,709.963074 
	C45.763050,709.723755 46.017738,712.365601 46.666882,714.074036 
	C54.518803,734.738647 63.589157,754.943359 70.216682,776.064758 
	C70.962608,778.441956 72.297607,778.745728 74.226799,778.756531 
	C76.224335,778.767700 77.360344,779.590210 77.218880,781.771301 
	C77.089905,783.759827 75.784370,784.241577 74.148781,784.247559 
	C67.991158,784.270081 61.833317,784.268616 55.675743,784.238281 
	C54.449711,784.232239 53.320793,783.879822 53.114101,782.414307 
	C52.923397,781.062256 53.576504,780.176453 54.848305,779.769226 
	C59.821377,778.176758 59.141796,774.586243 57.982075,770.860352 
	C57.488098,769.273376 56.710754,767.761841 56.338226,766.152161 
	C55.390614,762.057556 52.959736,761.166626 48.952061,761.614624 
	C43.513145,762.222656 37.988159,762.207581 32.501465,762.180481 
	C29.676640,762.166504 28.068977,763.277283 27.508244,765.919434 
	C26.660614,769.913391 24.372818,773.576233 24.526627,777.782166 
	C31.999409,780.001648 32.133156,780.202881 28.510704,784.225098 
M38.190231,735.623352 
	C35.860596,742.277588 33.530964,748.931763 30.843706,756.607483 
	C37.721710,756.607483 43.613014,756.761047 49.490463,756.542358 
	C52.405270,756.433838 51.676281,754.225708 51.050564,752.463013 
	C49.332832,747.624023 47.686214,742.753357 45.759537,737.997253 
	C44.459896,734.788940 44.071037,731.102112 41.175926,727.974854 
	C40.116341,730.633362 39.267326,732.763611 38.190231,735.623352 
z"/>
<path fill="#000000" opacity="1.000000" stroke="none" 
	d="
M190.444031,719.654663 
	C196.705582,735.657837 202.848038,751.292297 208.927368,766.951172 
	C209.886963,769.422852 210.682556,771.974609 211.332581,774.545349 
	C211.951447,776.992859 212.692520,778.997131 215.821014,778.762451 
	C217.703018,778.621155 219.139725,779.334839 219.055542,781.558838 
	C218.973007,783.738708 217.494293,784.282776 215.638977,784.283875 
	C209.813187,784.287415 203.987183,784.309082 198.161774,784.261353 
	C196.876755,784.250854 195.327316,784.385376 194.939362,782.631226 
	C194.602112,781.106262 195.306442,780.168884 196.803757,779.608643 
	C200.579300,778.196045 201.189804,775.467163 199.831268,771.954468 
	C199.352692,770.716980 199.078735,769.401917 198.636475,768.148682 
	C196.199249,761.242249 196.196564,761.330322 188.699249,761.791565 
	C183.884354,762.087769 179.051407,762.175842 174.226196,762.185486 
	C171.563614,762.190735 169.852402,762.989441 169.083557,765.773315 
	C167.988708,769.737488 166.589676,773.617676 165.434204,777.183167 
	C166.672470,779.075928 168.145584,778.617432 169.398071,778.722778 
	C171.177689,778.872375 172.178711,779.611328 172.160446,781.500061 
	C172.142380,783.367493 171.146454,784.250793 169.372650,784.260620 
	C164.546341,784.287292 159.719650,784.280823 154.893356,784.248779 
	C153.665482,784.240662 152.532516,783.853394 152.177826,782.511414 
	C151.824982,781.176453 152.435120,780.199890 153.717926,779.794128 
	C158.188980,778.379883 159.327759,774.399353 160.704529,770.676086 
	C167.396744,752.578735 174.024765,734.457642 180.689362,716.349976 
	C181.263077,714.791199 181.783279,713.181335 182.599396,711.749756 
	C184.159454,709.013184 185.912720,709.126343 187.258194,711.918701 
	C188.410843,714.310974 189.299011,716.830627 190.444031,719.654663 
M188.656693,741.709839 
	C186.815689,737.203125 185.720337,732.373840 182.711578,727.230835 
	C179.108475,737.396179 175.829971,746.645691 172.468460,756.129456 
	C180.017471,756.129456 186.657654,756.129456 193.377655,756.129456 
	C193.312714,755.077515 193.393707,754.554260 193.235733,754.117493 
	C191.824188,750.214905 190.370514,746.327576 188.656693,741.709839 
z"/>
<path fill="#000000" opacity="1.000000" stroke="none" 
	d="
M739.013123,724.195312 
	C739.065735,726.825806 739.149292,728.989868 739.112061,731.151855 
	C739.083496,732.815063 738.462463,734.116394 736.501160,734.078857 
	C734.880127,734.047913 734.183228,732.989868 733.938538,731.534729 
	C733.855957,731.043518 733.829590,730.543091 733.768311,730.047974 
	C732.335327,718.470581 728.532471,715.428528 717.021790,716.261230 
	C714.226379,716.463501 713.246582,717.571899 713.251343,720.254700 
	C713.283813,738.397034 713.286255,756.539795 713.185547,774.681763 
	C713.168640,777.728271 714.354980,778.911804 717.321960,778.749817 
	C719.211365,778.646606 721.137512,778.818787 721.152893,781.470459 
	C721.168030,784.092041 719.302673,784.282715 717.375977,784.288818 
	C711.550537,784.307129 705.724915,784.310425 699.899536,784.281677 
	C698.406738,784.274292 696.701050,784.339844 696.268982,782.429871 
	C695.818726,780.439880 697.397949,779.990906 698.843140,779.422913 
	C701.465088,778.392578 702.684998,776.312622 702.698425,773.568115 
	C702.785522,755.759521 702.825928,737.950745 702.925232,720.142212 
	C702.940552,717.391968 701.728210,716.452271 698.999756,716.299316 
	C686.886414,715.620667 683.802490,718.114746 682.164734,730.357178 
	C681.944824,732.001160 681.982300,733.960693 679.684265,734.025696 
	C677.072205,734.099487 676.892761,732.047424 676.963013,730.170349 
	C677.155884,725.018982 677.511292,719.873901 677.719604,714.722961 
	C677.819458,712.254517 679.312927,711.702393 681.377563,711.702087 
	C699.186890,711.699219 716.996277,711.709229 734.805481,711.659729 
	C737.367676,711.652649 738.328552,712.794739 738.380676,715.270264 
	C738.439941,718.092529 738.776184,720.909058 739.013123,724.195312 
z"/>
<path fill="#000000" opacity="1.000000" stroke="none" 
	d="
M597.334106,776.014221 
	C597.269043,784.309692 597.269043,784.313354 589.351868,784.315125 
	C576.533020,784.318054 563.713928,784.356628 550.895691,784.268555 
	C549.089844,784.256165 546.577942,785.246826 545.779480,782.528076 
	C544.988953,779.836365 547.584595,779.866882 549.044495,779.050903 
	C551.944458,777.429626 552.469727,774.512878 552.494141,771.724792 
	C552.643066,754.745483 552.590149,737.764404 552.660156,720.784180 
	C552.670349,718.319885 551.780579,717.014832 549.189087,717.077148 
	C547.096619,717.127563 545.552673,716.474731 545.778625,713.945374 
	C545.998230,711.487793 547.914795,711.735840 549.514709,711.719727 
	C555.007629,711.664307 560.501770,711.677063 565.994873,711.725830 
	C567.299316,711.737427 568.797424,711.723206 569.061035,713.535889 
	C569.305420,715.215698 568.228455,715.877197 566.821228,716.299255 
	C563.355225,717.338806 562.362122,720.043396 562.357056,723.270386 
	C562.330139,740.417603 562.391235,757.565186 562.294678,774.711853 
	C562.276306,777.985718 563.604980,779.206787 566.752625,779.092285 
	C571.576294,778.916809 576.410156,779.003113 581.231506,778.790894 
	C587.892090,778.497803 591.523743,775.151978 592.653198,768.502563 
	C592.875916,767.191528 592.942871,765.852417 593.197388,764.548828 
	C593.464661,763.180298 593.989807,761.897766 595.744629,762.090637 
	C597.511169,762.284912 597.732849,763.728333 597.712769,765.065247 
	C597.660400,768.556641 597.470398,772.045959 597.334106,776.014221 
z"/>
<path fill="#000000" opacity="1.000000" stroke="none" 
	d="
M752.824951,740.000000 
	C752.826965,733.514465 752.779846,727.528320 752.853638,721.543701 
	C752.886597,718.871460 752.382690,716.916443 749.089233,717.076965 
	C747.146973,717.171753 745.848816,716.323486 745.978882,714.152588 
	C746.118408,711.822266 747.880066,711.714844 749.589172,711.706360 
	C755.241821,711.678162 760.894836,711.677002 766.547363,711.712341 
	C767.855469,711.720520 769.408142,711.642822 769.783081,713.336548 
	C770.142395,714.959717 768.988220,715.772217 767.630493,716.197632 
	C763.899353,717.366699 763.224670,720.201538 763.231812,723.644165 
	C763.266602,740.436707 763.252991,757.229675 763.161926,774.021973 
	C763.146362,776.899414 763.546936,778.971375 767.117798,778.773987 
	C769.145996,778.661865 770.199890,779.764099 770.022156,781.867920 
	C769.855835,783.836853 768.465759,784.255188 766.854126,784.260986 
	C760.869202,784.282349 754.883911,784.287048 748.899109,784.247314 
	C747.473999,784.237854 746.226257,783.746216 746.070679,782.064575 
	C745.938965,780.640930 746.870667,779.996582 748.096985,779.656311 
	C752.086487,778.549377 752.832031,775.570374 752.809021,771.923645 
	C752.742920,761.449524 752.810242,750.974609 752.824951,740.000000 
z"/>
<path fill="#000000" opacity="1.000000" stroke="none" 
	d="
M493.357117,830.428650 
	C493.249542,833.313171 494.508484,835.253174 496.149902,837.190002 
	C493.319427,839.794006 490.615997,839.270264 487.416382,837.965820 
	C489.069916,834.050781 489.230927,830.099365 488.524658,825.590881 
	C485.601746,830.077332 485.109436,835.310303 481.596985,839.294556 
	C477.554138,835.776917 477.276825,830.708923 474.261597,826.497986 
	C473.994263,830.601013 472.344421,834.228882 475.710083,837.456421 
	C473.033234,839.676086 470.706940,839.390686 468.306519,837.971313 
	C469.698700,830.565186 472.253143,823.462097 468.809723,815.872742 
	C471.954895,813.934448 474.523346,814.137146 476.208099,817.888855 
	C477.969849,821.812012 479.645691,825.773682 481.630951,830.344482 
	C484.440735,826.286316 485.676941,822.199890 487.315552,818.336670 
	C488.898041,814.605957 491.248749,813.837036 495.090973,815.935486 
	C492.376221,820.453247 493.474548,825.282349 493.357117,830.428650 
z"/>
<path fill="#000000" opacity="1.000000" stroke="none" 
	d="
M21.322615,835.550964 
	C18.643156,828.751709 17.483841,821.782593 13.370523,815.695679 
	C16.538702,813.327209 19.491800,813.729797 22.958189,815.355957 
	C19.918116,819.596191 21.869995,823.186951 23.846153,827.218811 
	C27.062298,823.304199 26.257120,817.923218 30.218775,814.144836 
	C33.861004,818.045532 33.357506,823.627319 36.575775,827.818237 
	C38.231594,823.549316 40.333946,819.777161 38.730358,815.210022 
	C41.432095,814.156189 43.795113,814.489868 47.304478,814.759338 
	C40.802788,821.876221 41.224720,831.231995 35.978542,838.749146 
	C32.012684,834.831482 32.319973,829.650208 29.361256,825.334351 
	C28.040546,829.006897 26.920538,832.335938 25.644686,835.604126 
	C24.537022,838.441467 23.114063,839.225830 21.322615,835.550964 
z"/>
<path fill="#000000" opacity="1.000000" stroke="none" 
	d="
M74.819695,828.043945 
	C68.566467,828.544067 68.004112,829.967834 71.068260,836.928589 
	C68.658478,839.147827 66.013000,838.322266 63.262894,837.632874 
	C64.984230,830.261536 65.986115,823.050964 62.787472,815.658203 
	C65.302330,813.938660 67.985924,814.527893 70.933174,814.892273 
	C70.835464,817.907654 67.907967,820.423462 70.112503,823.796204 
	C72.603188,824.073181 75.903778,825.616394 78.066818,823.258179 
	C80.054642,821.090942 78.033028,818.326904 76.485535,815.876343 
	C79.238739,813.915588 81.919518,814.603088 84.912094,814.961792 
	C82.676010,822.354309 82.367416,829.546143 84.916023,837.031921 
	C82.463539,839.132080 79.756897,838.446777 76.964111,837.564941 
	C76.782959,834.146606 82.620544,829.827026 74.819695,828.043945 
z"/>
<path fill="#000000" opacity="1.000000" stroke="none" 
	d="
M736.445190,836.742554 
	C734.410522,841.603149 731.930420,839.144165 729.948547,837.014893 
	C728.088257,835.016357 726.751831,832.530334 725.052734,830.067261 
	C723.076599,833.234436 725.257202,835.409485 726.054810,837.924561 
	C723.239990,839.965393 720.553589,839.613159 717.610596,838.356934 
	C720.428345,830.978516 720.251892,823.825012 717.767517,816.581360 
	C721.471191,814.024292 730.328430,814.581543 733.160767,817.675598 
	C735.988403,820.764526 735.375305,823.851990 730.820984,829.050598 
	C731.813599,832.058716 733.521301,834.605652 736.445190,836.742554 
M729.174988,820.421692 
	C727.554199,818.972778 725.776672,817.011108 724.435364,820.503845 
	C723.885742,821.935181 723.706116,823.818054 725.000732,825.113464 
	C725.428894,825.541931 726.593628,825.608093 727.247375,825.367126 
	C729.206299,824.645203 729.878906,823.086182 729.174988,820.421692 
z"/>
<path fill="#000000" opacity="1.000000" stroke="none" 
	d="
M408.314392,827.629883 
	C408.342255,831.275940 407.791931,834.658813 410.942871,837.192749 
	C407.982544,839.237305 405.775452,839.297241 403.409210,837.774780 
	C405.354858,830.520142 405.736908,823.433472 403.285004,816.041504 
	C405.952728,813.518494 408.201691,814.789185 410.079987,817.273865 
	C413.246277,821.462280 416.261414,825.765015 419.731537,829.858826 
	C419.612640,825.252014 420.965607,820.595032 417.941162,816.405823 
	C420.251678,813.902222 422.622620,814.468628 425.513733,815.660217 
	C421.636139,823.108337 424.972992,831.298279 422.246735,839.920105 
	C416.372253,835.368835 413.954498,828.725281 409.179535,824.287415 
	C408.001373,825.245728 408.480530,826.324707 408.314392,827.629883 
z"/>
<path fill="#000000" opacity="1.000000" stroke="none" 
	d="
M963.169434,839.116455 
	C961.009094,839.273010 959.146851,839.759277 957.549805,838.474060 
	C959.355530,830.689026 959.338806,824.197144 957.466553,816.500122 
	C960.530579,814.812134 962.665344,815.830261 964.548767,818.574097 
	C967.428162,822.768921 970.502075,826.830139 973.939331,830.792542 
	C973.568054,826.057251 974.868408,821.265198 972.094666,816.980225 
	C974.467590,815.063843 976.667114,815.588196 979.417725,816.296387 
	C975.679199,823.745239 979.251282,831.911560 976.374939,840.177368 
	C969.893738,836.318359 968.042114,828.989685 962.550232,824.064148 
	C962.585205,828.726685 961.111328,832.942078 964.014343,836.822327 
	C964.573547,837.569702 964.281128,838.400208 963.169434,839.116455 
z"/>
<path fill="#000000" opacity="1.000000" stroke="none" 
	d="
M931.841858,815.719788 
	C937.589661,818.560852 939.804565,823.041992 939.272400,828.899048 
	C938.853638,833.508789 936.721680,837.113037 932.306335,838.965149 
	C927.200256,841.106995 921.679321,839.746521 918.331482,835.676086 
	C915.124512,831.776917 914.627869,825.123169 917.214294,820.705566 
	C920.011292,815.928101 924.952637,814.158630 931.841858,815.719788 
M923.978027,819.467224 
	C921.658936,821.212830 920.911621,823.812927 920.604309,826.444519 
	C919.913452,832.358093 925.020508,837.783569 929.473145,836.076965 
	C933.226318,834.638489 935.178162,829.423523 933.757263,824.630249 
	C932.260437,819.580505 929.647644,817.999146 923.978027,819.467224 
z"/>
<path fill="#000000" opacity="1.000000" stroke="none" 
	d="
M369.861694,838.638062 
	C363.103424,835.486694 360.203705,829.470459 362.006317,822.984436 
	C363.603271,817.238403 368.645966,813.712891 374.391998,814.325439 
	C381.878418,815.123413 386.258301,820.990479 385.242096,828.859558 
	C384.298187,836.168701 378.453522,840.035339 369.861694,838.638062 
M367.534119,830.809265 
	C370.852081,836.232788 374.700195,837.209290 378.033478,833.473694 
	C380.834839,830.334045 380.983673,823.981140 378.146362,820.560059 
	C376.264557,818.290894 373.977081,816.691833 370.819000,818.351501 
	C367.319275,820.190674 365.903900,824.595398 367.196899,829.599915 
	C367.238220,829.759949 367.281403,829.919434 367.534119,830.809265 
z"/>
<path fill="#000000" opacity="1.000000" stroke="none" 
	d="
M143.351425,814.632324 
	C145.798340,814.635010 147.797592,814.666199 149.796875,814.669922 
	C152.853500,814.675659 155.502396,815.624695 156.752579,818.580811 
	C158.049164,821.646790 157.220963,824.448059 154.858887,826.791748 
	C154.402130,827.244812 153.995636,827.748535 153.675171,828.106812 
	C154.209747,832.078247 157.393417,834.057190 159.653030,836.984192 
	C156.584534,839.299438 154.343811,838.411194 152.246185,836.029541 
	C150.533157,834.084534 149.844345,831.315369 147.450821,829.696228 
	C144.825516,832.683289 147.863205,834.677795 148.475449,837.222961 
	C145.824112,839.240417 143.174332,838.117249 140.352142,837.947205 
	C141.853638,830.735901 143.010895,823.982300 140.406830,817.209900 
	C139.528595,814.925781 141.404541,814.861084 143.351425,814.632324 
M147.640335,825.039429 
	C148.582733,824.825500 149.667862,824.836853 150.436981,824.349487 
	C151.913589,823.413940 152.839539,821.993652 152.047058,820.157654 
	C151.475952,818.834656 150.306503,818.165955 148.848740,818.287292 
	C146.585297,818.475647 146.392227,820.193604 146.455399,821.904358 
	C146.490189,822.846558 146.860901,823.776367 147.640335,825.039429 
z"/>
<path fill="#000000" opacity="1.000000" stroke="none" 
	d="
M558.793091,824.489563 
	C560.399414,824.133667 560.850281,822.306274 562.795776,822.683533 
	C564.748352,825.008911 564.191040,827.562988 563.195374,830.115662 
	C562.604919,830.233887 562.271423,830.396729 561.976440,830.343994 
	C560.283936,830.041321 558.911072,826.687256 557.019165,829.404358 
	C555.942688,830.950500 555.628540,833.670776 557.353760,834.908203 
	C559.442566,836.406372 562.076477,836.280151 564.071716,834.074280 
	C564.909485,833.148010 564.767334,831.386414 566.807739,831.180542 
	C569.001343,832.832092 568.318970,835.160095 567.633606,837.267456 
	C567.002502,839.207581 565.067505,839.235229 563.415222,839.115234 
	C559.065125,838.799255 554.543823,840.105103 550.301147,838.151062 
	C552.365479,830.578796 552.537231,823.355591 550.169861,815.596924 
	C555.201782,814.221619 560.281311,814.433838 565.253662,815.212769 
	C567.522217,815.568176 567.612061,818.167847 565.748779,822.104370 
	C563.033569,820.884949 561.192322,815.727722 557.361206,819.367798 
	C555.853516,820.800171 555.413391,823.374207 558.793091,824.489563 
z"/>
<path fill="#000000" opacity="1.000000" stroke="none" 
	d="
M189.978424,822.021423 
	C189.994629,824.607300 190.595230,827.261414 189.461014,829.531494 
	C186.904480,830.624756 186.484940,827.114441 183.972275,828.000732 
	C182.498703,829.959900 182.163742,832.806763 184.308258,834.252136 
	C188.189529,836.868042 190.351013,833.078979 192.623734,830.530518 
	C195.079239,832.346985 194.453308,834.646545 193.941177,836.573730 
	C193.322021,838.903809 191.007278,838.421265 189.287949,838.318237 
	C185.081375,838.066345 180.764374,839.056641 176.609055,837.619141 
	C178.335449,830.188660 178.946472,823.094116 176.109360,815.462097 
	C181.143509,813.946289 186.201035,814.712341 191.183670,814.907776 
	C192.791702,814.970825 193.160309,816.501404 193.177124,817.900818 
	C193.198547,819.687195 193.610535,821.758606 190.377930,821.622314 
	C189.646729,818.894287 188.213623,817.833618 185.921585,817.799438 
	C184.876495,817.783875 183.801941,818.102356 183.529953,819.157898 
	C183.055557,820.998901 182.372543,823.038269 185.108673,824.376587 
	C186.657303,823.669434 187.660202,821.264893 189.978424,822.021423 
z"/>
<path fill="#000000" opacity="1.000000" stroke="none" 
	d="
M517.495850,839.062866 
	C515.106018,838.697998 513.778931,838.517151 514.645874,835.588745 
	C516.537781,829.197510 516.492371,822.651672 513.777893,815.439758 
	C518.893860,814.226379 524.065735,814.172485 528.855408,815.261658 
	C531.803284,815.932068 531.374512,819.295471 529.791016,822.266052 
	C527.149231,820.355713 525.257935,816.305237 521.563171,818.901855 
	C519.580322,820.295410 519.861938,822.606079 521.291443,824.259460 
	C523.779175,825.217102 524.404541,821.959900 526.846375,822.759521 
	C528.193420,825.065491 527.369080,827.538208 526.981384,829.811401 
	C524.594727,831.211243 522.375549,825.634521 520.616028,830.014160 
	C519.961304,831.643921 519.386414,834.341980 521.759155,835.307007 
	C525.764343,836.935913 528.258972,834.607361 529.892822,830.782349 
	C532.645142,832.403931 532.047852,834.582703 531.669800,836.592163 
	C531.222473,838.969238 529.272949,839.040222 527.400757,839.059204 
	C524.245422,839.091187 521.089661,839.079834 517.495850,839.062866 
z"/>
<path fill="#000000" opacity="1.000000" stroke="none" 
	d="
M119.484604,815.096680 
	C120.980034,817.442627 121.679855,819.567749 119.473938,821.852478 
	C116.972702,820.040710 115.426773,815.249146 111.189911,818.605469 
	C109.895905,819.630432 109.919579,821.560120 110.784271,822.745117 
	C112.606094,825.241943 114.208954,822.031982 116.393906,822.156860 
	C117.918671,824.607239 117.625473,827.154724 116.810585,829.966431 
	C116.050346,829.762695 115.473755,829.778687 115.178543,829.498352 
	C114.121826,828.494934 113.216606,826.813416 111.501953,827.952271 
	C109.656815,829.177795 110.274742,831.284302 110.544846,833.008545 
	C110.848030,834.944153 112.621971,834.705872 114.108353,834.910400 
	C117.480858,835.374512 118.310303,832.378723 120.050484,830.291443 
	C122.748543,832.114502 122.207413,834.429382 121.575165,836.580872 
	C120.954987,838.691345 118.954063,838.397217 117.366905,838.299255 
	C113.001839,838.029907 108.515137,839.109924 104.195595,837.494507 
	C106.264908,831.043518 106.499428,822.234253 103.973930,815.246765 
	C109.038780,813.900146 114.074936,814.277954 119.484604,815.096680 
z"/>
<path fill="#000000" opacity="1.000000" stroke="none" 
	d="
M770.261719,817.950867 
	C770.129700,819.732483 770.931213,821.425659 768.764404,822.369934 
	C766.780945,820.650513 765.398621,816.819458 761.781555,818.822083 
	C759.426819,820.125854 760.104065,822.394897 760.929443,824.128723 
	C763.436340,825.642212 764.124023,822.020203 766.563049,823.161743 
	C768.031433,825.311829 767.122498,827.815918 766.999329,830.098633 
	C764.371704,831.347290 763.755127,827.995544 761.323181,828.748108 
	C759.668884,830.646301 759.353821,833.751160 761.312805,835.018066 
	C765.142273,837.494629 767.982056,834.756958 769.948364,831.129272 
	C772.903687,836.945068 771.697693,839.338379 766.036133,839.238037 
	C762.137634,839.168884 758.125305,840.063782 754.205444,838.456543 
	C756.037537,831.026306 756.774536,823.784973 754.026489,816.596802 
	C758.600220,813.922058 767.361633,814.431091 770.261719,817.950867 
z"/>
<path fill="#000000" opacity="1.000000" stroke="none" 
	d="
M856.939697,825.907471 
	C854.535706,823.169434 854.350769,820.437317 856.109619,817.818115 
	C857.985229,815.025146 860.873169,814.535400 864.078247,814.973755 
	C870.937988,815.911865 871.762817,817.270813 869.082458,823.669739 
	C866.656677,823.967041 866.877136,821.648315 865.989929,820.462830 
	C864.904297,819.012146 863.615479,818.114258 861.742432,818.566345 
	C860.689453,818.820557 859.908020,819.577515 859.827087,820.632935 
	C859.689209,822.428894 861.089172,823.193115 862.424011,823.930786 
	C864.453552,825.052368 866.614136,825.995422 868.473694,827.351013 
	C870.797119,829.044739 871.803162,831.536316 871.103943,834.408020 
	C870.404968,837.278748 868.341492,838.741638 865.531921,839.492615 
	C862.485718,840.306824 859.175842,840.041931 856.729187,838.909119 
	C853.519653,837.423157 854.465942,834.084473 855.715149,831.377136 
	C858.447754,831.036316 858.201050,833.502808 859.349487,834.501526 
	C860.873352,835.826660 862.541870,836.202698 864.444458,835.752075 
	C865.491821,835.503967 866.327820,834.887878 866.421997,833.778015 
	C866.595154,831.737671 864.951843,830.957153 863.563171,830.077759 
	C861.462219,828.747253 859.322205,827.478394 856.939697,825.907471 
z"/>
<path fill="#000000" opacity="1.000000" stroke="none" 
	d="
M629.901367,839.335449 
	C622.440918,838.929138 621.103394,836.814026 624.248474,831.063171 
	C626.626160,831.115356 626.417480,833.768677 627.913879,834.727173 
	C629.922302,836.013916 632.159302,836.581299 633.798157,834.679749 
	C635.726624,832.442383 633.563660,831.054749 631.928894,829.969421 
	C629.995789,828.686096 627.754883,827.843933 625.902344,826.467468 
	C623.438721,824.636902 622.370972,822.117676 623.465332,818.995789 
	C624.473816,816.118774 626.556946,814.787659 629.526489,814.717041 
	C630.523926,814.693237 631.523865,814.706665 632.520935,814.745667 
	C638.778809,814.990662 639.962280,817.259644 636.895325,823.172241 
	C634.529968,822.990601 634.859314,820.362793 633.421509,819.324707 
	C631.776733,818.137207 629.929443,817.535217 628.504944,819.178894 
	C626.976013,820.943115 628.606934,822.252869 629.953308,823.224182 
	C631.018738,823.992798 632.287598,824.483948 633.478394,825.073547 
	C637.151306,826.892151 640.111450,829.320435 639.162903,833.926697 
	C638.191345,838.644165 634.520630,839.524475 629.901367,839.335449 
z"/>
<path fill="#000000" opacity="1.000000" stroke="none" 
	d="
M308.918304,835.593872 
	C313.155731,833.491394 313.437256,832.047119 310.202942,829.833435 
	C308.294891,828.527466 306.029327,827.730286 304.171997,826.367065 
	C301.584015,824.467712 300.233124,821.953125 301.436554,818.563843 
	C302.640717,815.172302 305.320892,814.152283 308.493561,814.159790 
	C316.327393,814.178406 318.198730,816.808105 314.848572,822.887024 
	C312.446289,822.708801 312.811554,820.102966 311.448334,818.992920 
	C309.925781,817.753052 308.358551,816.720154 306.637207,818.428040 
	C304.666870,820.382935 306.224060,821.809570 307.763580,822.844238 
	C309.544769,824.041321 311.600067,824.823242 313.427094,825.960876 
	C316.365631,827.790588 317.953156,830.374451 317.045624,833.949524 
	C316.181610,837.353333 313.495636,838.774292 310.376282,839.012817 
	C307.777710,839.211548 304.622681,839.510742 302.609406,838.289551 
	C299.446564,836.371033 300.352753,833.184937 302.170380,830.116272 
	C304.952698,831.627258 305.094635,835.618286 308.918304,835.593872 
z"/>
<path fill="#000000" opacity="1.000000" stroke="none" 
	d="
M694.564087,829.910400 
	C687.349670,831.430115 687.194397,831.788330 691.077454,837.891052 
	C688.254150,840.109985 685.380005,839.447083 682.291199,838.403564 
	C684.235962,830.945557 684.655945,823.706726 682.232910,816.445129 
	C686.298584,814.029541 694.706909,814.596741 697.934143,817.583618 
	C701.788086,821.150269 700.527710,826.245422 694.564087,829.910400 
M694.536865,821.102661 
	C693.406799,819.247131 691.669495,817.732300 689.689392,818.938538 
	C687.341492,820.369019 688.514099,823.166931 688.510254,825.396118 
	C688.507996,826.709595 689.349182,827.663635 690.801147,827.285706 
	C693.065552,826.696472 694.647095,825.365112 694.746094,822.806519 
	C694.758850,822.476746 694.715332,822.144775 694.536865,821.102661 
z"/>
<path fill="#000000" opacity="1.000000" stroke="none" 
	d="
M800.999146,839.618774 
	C792.523376,838.452454 788.447510,833.274841 789.525696,825.536682 
	C790.602295,817.809875 795.897949,814.026184 804.141113,815.094177 
	C810.655884,815.938171 812.003540,818.642944 808.237549,824.300781 
	C805.481934,820.763306 803.165344,815.586243 797.471741,819.706177 
	C794.396240,821.931519 793.401978,827.228577 795.261902,831.143311 
	C798.879700,838.758301 804.367615,835.153259 809.555969,832.994873 
	C809.192505,837.556274 807.837036,838.588623 800.999146,839.618774 
z"/>
<path fill="#000000" opacity="1.000000" stroke="none" 
	d="
M605.189514,822.052551 
	C602.677734,824.418518 602.431519,822.120789 601.864746,820.713257 
	C601.323486,819.368958 600.659607,818.172302 599.020813,818.593201 
	C597.356384,819.020630 597.395569,820.530029 597.536926,821.870483 
	C598.086975,827.084961 595.328735,832.789917 600.108337,837.543823 
	C597.253662,840.184448 594.375549,839.314270 590.996643,838.232666 
	C593.609680,832.595703 592.570251,826.813049 592.702637,821.118958 
	C592.730408,819.922729 592.522705,818.703430 590.973083,818.543884 
	C589.815247,818.424683 589.154297,819.185730 588.670105,820.113586 
	C588.050354,821.301208 588.471619,823.447205 586.155151,823.077026 
	C584.920959,822.879822 584.805420,821.698853 584.850403,820.705200 
	C584.937439,818.782288 584.222412,815.913940 586.501221,815.437073 
	C592.191223,814.246399 598.127808,814.167603 603.769348,815.463989 
	C606.455505,816.081238 605.053223,819.486206 605.189514,822.052551 
z"/>
<path fill="#000000" opacity="1.000000" stroke="none" 
	d="
M249.028702,825.030396 
	C250.402649,821.832520 251.857193,818.986755 249.722366,815.703430 
	C252.634689,814.279053 255.072250,814.379150 258.126587,815.566101 
	C252.386292,822.426697 251.652618,831.328369 246.974670,839.530640 
	C241.298645,831.776917 240.188675,822.944519 234.920456,816.016357 
	C238.020737,813.888000 240.751572,814.906250 244.021118,814.912598 
	C241.344910,820.661682 245.028061,824.465210 246.819717,828.941345 
	C248.410538,827.957703 248.456818,826.551025 249.028702,825.030396 
z"/>
<path fill="#000000" opacity="1.000000" stroke="none" 
	d="
M335.244568,836.959717 
	C338.082367,829.713501 337.269043,822.867249 335.130493,815.682678 
	C337.813263,814.141418 340.524841,814.403687 343.399933,815.485596 
	C341.540619,822.852234 340.877747,830.012756 343.355042,837.614685 
	C340.788971,839.405212 338.053680,839.543701 335.244568,836.959717 
z"/>
<path fill="#000000" opacity="1.000000" stroke="none" 
	d="
M836.493042,816.637451 
	C834.091370,823.955933 834.075195,830.945496 836.409790,838.335266 
	C833.914856,839.990601 831.195129,839.551575 828.267090,838.464844 
	C830.434265,831.061340 830.716064,823.845642 828.147644,816.389893 
	C830.886230,814.754944 833.615540,814.758484 836.493042,816.637451 
z"/>
<path fill="#000000" opacity="1.000000" stroke="none" 
	d="
M889.976929,835.784424 
	C891.082336,829.207214 891.674805,823.004333 889.073853,816.628357 
	C891.812439,815.027161 894.511414,815.312805 897.313477,816.371704 
	C895.527100,823.809875 894.859009,831.023499 897.324768,838.218262 
	C891.960938,840.336609 889.807800,839.739075 889.976929,835.784424 
z"/>
<path fill="#000000" opacity="1.000000" stroke="none" 
	d="
M280.783081,832.672913 
	C281.345306,834.367004 281.929321,835.684387 282.623779,837.250916 
	C279.960663,839.124207 277.329193,838.415222 274.470367,837.801453 
	C276.240967,830.384521 276.733276,823.161743 274.155273,815.692932 
	C276.895844,814.175903 279.597778,814.340027 282.773438,815.644653 
	C279.875580,821.069275 281.423309,826.783142 280.783081,832.672913 
z"/>
</svg>